<?xml version="1.0" encoding="utf-8"?>
<!-- Generator: Adobe Illustrator 17.0.0, SVG Export Plug-In . SVG Version: 6.00 Build 0)  -->
<!DOCTYPE svg PUBLIC "-//W3C//DTD SVG 1.1//EN" "http://www.w3.org/Graphics/SVG/1.1/DTD/svg11.dtd">
<svg version="1.1" id="_x31_" xmlns="http://www.w3.org/2000/svg" xmlns:xlink="http://www.w3.org/1999/xlink" x="0px" y="0px"
	 width="100px" height="100px" viewBox="0 0 100 100" enable-background="new 0 0 100 100" xml:space="preserve">
<path d="M58.529,46.312h-5.362l2.571-4.167c0.349-0.51,0.405-1.178,0.138-1.742c-0.288-0.61-0.911-1.004-1.585-1.004h-5.756
	c-0.651,0-1.244,0.357-1.55,0.931l-4.673,10.409c-0.251,0.528-0.221,1.157,0.081,1.659c0.316,0.523,0.892,0.849,1.503,0.849h3.381
	l-3.08,6.161c-0.381,0.764-0.16,1.685,0.525,2.193c0.313,0.232,0.679,0.345,1.044,0.345c0.436,0,0.871-0.163,1.209-0.483
	l12.764-12.125c0.523-0.498,0.688-1.253,0.42-1.923C59.891,46.745,59.251,46.312,58.529,46.312z M50.218,54.178l0.72-1.44
	c0.274-0.548,0.245-1.186-0.077-1.708c-0.322-0.52-0.88-0.832-1.493-0.832h-3.475l3.478-7.752h2.599L49.4,46.614
	c-0.348,0.51-0.405,1.177-0.139,1.741c0.289,0.61,0.911,1.005,1.586,1.005h4.442L50.218,54.178z M90.388,42.888
	c-3.398,0-6.243,2.397-6.943,5.588H70.499c-0.784-10.77-9.791-19.295-20.757-19.295s-19.973,8.525-20.757,19.295h-12.43
	c-0.7-3.191-3.545-5.588-6.943-5.588C5.69,42.888,2.5,46.078,2.5,50s3.19,7.112,7.112,7.112c3.398,0,6.243-2.397,6.943-5.588h12.43
	c0.784,10.77,9.791,19.295,20.757,19.295s19.973-8.525,20.757-19.295h12.947c0.7,3.191,3.545,5.588,6.943,5.588
	c3.921,0,7.112-3.191,7.112-7.112S94.31,42.888,90.388,42.888z M9.612,54.064c-2.241,0-4.064-1.823-4.064-4.064
	c0-2.241,1.823-4.064,4.064-4.064s4.064,1.823,4.064,4.064C13.675,52.241,11.852,54.064,9.612,54.064z M49.742,67.77
	c-9.799,0-17.771-7.972-17.771-17.771c0-9.798,7.972-17.771,17.771-17.771S67.513,40.201,67.513,50
	C67.513,59.799,59.541,67.77,49.742,67.77z M90.388,54.064c-2.241,0-4.064-1.823-4.064-4.064c0-2.241,1.823-4.064,4.064-4.064
	c2.241,0,4.064,1.823,4.064,4.064C94.453,52.241,92.629,54.064,90.388,54.064z"/>
</svg>
