<?xml version="1.0" encoding="utf-8"?>
<!-- Generator: Adobe Illustrator 17.0.0, SVG Export Plug-In . SVG Version: 6.00 Build 0)  -->
<!DOCTYPE svg PUBLIC "-//W3C//DTD SVG 1.1//EN" "http://www.w3.org/Graphics/SVG/1.1/DTD/svg11.dtd">
<svg version="1.1" id="_x31_" xmlns="http://www.w3.org/2000/svg" xmlns:xlink="http://www.w3.org/1999/xlink" x="0px" y="0px"
	 width="100px" height="100px" viewBox="0 0 100 100" enable-background="new 0 0 100 100" xml:space="preserve">
<path d="M46.329,36.809l-6.301,14.035c-0.346,0.722-0.307,1.554,0.11,2.245c0.425,0.705,1.202,1.143,2.026,1.143h4.561l-4.156,8.31
	c-0.514,1.03-0.217,2.275,0.709,2.961c0.421,0.312,0.916,0.466,1.409,0.466c0.589,0,1.175-0.22,1.63-0.652l17.22-16.359
	c0.706-0.671,0.928-1.688,0.568-2.593c-0.362-0.905-1.224-1.488-2.199-1.488h-7.234l3.468-5.622c0.47-0.688,0.547-1.588,0.187-2.349
	c-0.389-0.824-1.229-1.356-2.139-1.356h-7.767C47.543,35.549,46.74,36.031,46.329,36.809z M53.058,39.661l-3.469,5.622
	c-0.47,0.689-0.546,1.59-0.185,2.352c0.39,0.822,1.229,1.353,2.139,1.353h5.992l-6.841,6.499l0.971-1.941
	c0.369-0.739,0.33-1.6-0.104-2.303c-0.434-0.703-1.186-1.122-2.013-1.122H44.86l4.692-10.459H53.058z M97.487,50.925
	c0.006-0.321,0.002-0.643,0.002-0.965c-0.001,0.219,0.011,0.44,0.008,0.659c0.006-0.446-0.001-0.892-0.007-1.339
	c-0.006-0.378-0.009-0.756-0.023-1.134c-0.006-0.151-0.01-0.303-0.017-0.454c0.005,0.103,0.004,0.206,0.008,0.309
	c-0.017-0.411-0.049-0.821-0.077-1.231c0.02,0.307,0.054,0.615,0.069,0.922c-0.022-0.458-0.062-0.914-0.096-1.371
	c-0.03-0.382-0.053-0.765-0.092-1.147c-0.013-0.125-0.021-0.249-0.035-0.373c0.011,0.096,0.014,0.194,0.024,0.29
	c-0.05-0.482-0.12-0.963-0.184-1.444c0.051,0.385,0.117,0.768,0.16,1.154c-0.054-0.499-0.133-0.994-0.202-1.492
	c-0.053-0.371-0.096-0.742-0.157-1.112c-0.014-0.085-0.022-0.171-0.036-0.256c0.014,0.081,0.02,0.162,0.033,0.243
	c-0.154-0.93-0.328-1.856-0.537-2.778c-0.353-1.555-2.24-2.163-3.411-1.081c-0.546,0.505-0.765,1.262-0.6,1.987
	c0.014,0.06,0.024,0.12,0.038,0.18c0.219,0.977,0.403,1.958,0.552,2.94c0.004,0.028,0.007,0.057,0.012,0.087
	c0.014,0.095,0.02,0.189,0.033,0.284c-0.011-0.075-0.014-0.149-0.025-0.224c0.134,0.899,0.243,1.801,0.321,2.706
	c-0.071-0.829-0.177-1.656-0.296-2.482c2.189,15.345-4.025,30.963-16.417,40.578c-0.001,0.001-0.002,0.002-0.003,0.002
	c-0.104,0.082-0.213,0.155-0.319,0.236c-16.58,12.613-40.475,11.451-55.753-2.775c0.196,0.182,0.4,0.355,0.599,0.533
	c-0.199-0.178-0.402-0.35-0.599-0.533C11.125,73.153,6.539,61.479,6.582,49.851c0.003-0.743,0.025-1.484,0.066-2.222
	c0.005-0.1,0.016-0.198,0.023-0.298c0.04-0.653,0.09-1.304,0.16-1.952c0.002-0.02,0.006-0.04,0.008-0.061
	c1.05-9.626,5.3-18.699,12.062-25.643c0.523-0.536,1.061-1.062,1.617-1.576c0.454-0.42,0.917-0.825,1.386-1.222
	c0.169-0.144,0.342-0.283,0.513-0.424c0.294-0.242,0.59-0.479,0.888-0.713c0.222-0.172,0.444-0.344,0.668-0.512
	c0.234-0.175,0.47-0.344,0.706-0.514c0.274-0.196,0.546-0.394,0.824-0.583c-0.084,0.057-0.17,0.11-0.253,0.168
	c0.086-0.059,0.173-0.113,0.259-0.172c-0.002,0.002-0.004,0.002-0.006,0.004c0.028-0.019,0.055-0.036,0.083-0.055
	c0,0,0.001,0,0.001-0.001l-0.001,0.001c9.899-6.714,22.036-8.917,33.412-6.531c-0.257-0.054-0.512-0.116-0.77-0.165
	c0.363,0.07,0.724,0.149,1.085,0.228c-0.105-0.023-0.211-0.041-0.315-0.063c0.198,0.042,0.395,0.083,0.592,0.127
	c-0.067-0.015-0.134-0.032-0.2-0.047c0.234,0.052,0.468,0.1,0.702,0.155c-0.167-0.04-0.335-0.07-0.502-0.109
	c0.37,0.083,0.739,0.17,1.108,0.262c-0.139-0.035-0.276-0.078-0.415-0.112c0.184,0.045,0.367,0.097,0.551,0.144
	c-0.045-0.011-0.091-0.021-0.135-0.032c0.407,0.104,0.812,0.214,1.216,0.329c-0.345-0.098-0.69-0.196-1.037-0.284
	c0.499,0.128,0.998,0.261,1.492,0.407c-0.151-0.045-0.304-0.08-0.456-0.123c0.348,0.099,0.695,0.202,1.041,0.31
	c-0.065-0.02-0.128-0.043-0.193-0.063c0.298,0.092,0.594,0.184,0.891,0.282c-0.232-0.076-0.466-0.147-0.698-0.219
	c0.428,0.134,0.855,0.271,1.279,0.418c-0.142-0.049-0.283-0.103-0.425-0.15c0.197,0.066,0.393,0.134,0.589,0.203
	c-0.054-0.019-0.109-0.035-0.164-0.053c0.166,0.057,0.33,0.116,0.496,0.175c0.083,0.029,0.165,0.06,0.247,0.09
	c0.479,0.176,0.955,0.358,1.426,0.55c4.004,1.628,7.809,3.865,11.259,6.722c-3.05-0.05-6.099-0.1-9.15-0.15
	c-2.646-0.044-2.814,4.065-0.162,4.108c5.101,0.084,10.202,0.168,15.302,0.252c1.329,0.022,2.366-1.18,2.089-2.497
	c-0.986-4.678-1.97-9.356-2.955-14.034c-0.547-2.595-4.562-1.704-4.017,0.886c0.597,2.833,1.194,5.668,1.79,8.501
	C67.805,2.872,50.573-0.137,35.292,4.803c0.165-0.053,0.327-0.119,0.493-0.172c-0.168,0.053-0.332,0.12-0.5,0.174
	C34.65,5.01,34.019,5.23,33.391,5.463c-0.255,0.095-0.51,0.187-0.764,0.286c-0.845,0.33-1.686,0.679-2.515,1.059
	c-0.005,0.002-0.009,0.005-0.014,0.006c-0.828,0.381-1.644,0.794-2.454,1.226c-0.213,0.113-0.423,0.232-0.634,0.348
	c-0.632,0.349-1.258,0.713-1.876,1.093c-0.013,0.008-0.027,0.015-0.04,0.023c0.011-0.007,0.023-0.014,0.036-0.021
	c-0.146,0.09-0.292,0.177-0.436,0.268c0.054-0.035,0.107-0.075,0.162-0.109c-0.1,0.062-0.199,0.129-0.299,0.193
	c-1.554,0.985-3.063,2.068-4.521,3.253c-0.063,0.051-0.129,0.098-0.192,0.149c0.053-0.044,0.11-0.083,0.164-0.126
	c-0.158,0.129-0.313,0.262-0.47,0.394c0.104-0.087,0.202-0.182,0.306-0.268c-0.14,0.116-0.274,0.241-0.413,0.358
	c-0.526,0.442-1.045,0.897-1.556,1.366c-0.123,0.113-0.253,0.215-0.375,0.33c0.116-0.109,0.239-0.206,0.355-0.313
	c-0.198,0.182-0.398,0.364-0.594,0.55c0.081-0.077,0.157-0.161,0.238-0.237c-0.093,0.087-0.18,0.181-0.273,0.27
	c-0.565,0.538-1.12,1.092-1.666,1.663c-0.092,0.098-0.192,0.186-0.284,0.285c0.087-0.094,0.181-0.177,0.27-0.27
	c-0.135,0.142-0.275,0.275-0.41,0.419c-2.18,2.341-4.07,4.866-5.69,7.517c0.04-0.066,0.075-0.135,0.115-0.201
	c-0.043,0.069-0.079,0.142-0.121,0.211c-0.451,0.739-0.88,1.488-1.288,2.246c-0.05,0.093-0.102,0.185-0.151,0.278
	c-0.453,0.857-0.879,1.724-1.277,2.603c-0.015,0.035-0.03,0.07-0.045,0.105c-0.371,0.826-0.713,1.662-1.035,2.505
	c-0.051,0.133-0.104,0.266-0.153,0.4c-0.332,0.895-0.643,1.796-0.921,2.707c-0.002,0.007-0.004,0.015-0.006,0.023
	c-0.264,0.869-0.496,1.746-0.709,2.627c-0.047,0.193-0.094,0.385-0.138,0.579c-0.207,0.904-0.397,1.81-0.551,2.723
	c-0.002,0.008-0.002,0.017-0.004,0.025c-0.151,0.892-0.267,1.789-0.367,2.688c-0.025,0.226-0.049,0.453-0.071,0.679
	c-0.177,1.829-0.249,3.667-0.217,5.504c0.004,0.228,0.01,0.457,0.017,0.685c0.029,0.904,0.075,1.808,0.155,2.71
	c0.001,0.007,0.001,0.015,0.002,0.022c0.082,0.922,0.2,1.84,0.335,2.757c0.029,0.198,0.061,0.394,0.092,0.59
	c0.143,0.893,0.305,1.784,0.5,2.67c0.002,0.01,0.003,0.019,0.006,0.029c0.205,0.929,0.444,1.852,0.705,2.769
	c0.039,0.138,0.08,0.274,0.121,0.411c0.254,0.866,0.53,1.727,0.836,2.581c0.012,0.035,0.023,0.071,0.036,0.106
	c0.326,0.908,0.684,1.807,1.068,2.697c0.041,0.096,0.086,0.192,0.128,0.287c0.347,0.789,0.716,1.569,1.107,2.341
	c0.037,0.073,0.068,0.149,0.104,0.221c-0.035-0.069-0.064-0.141-0.099-0.211c1.406,2.772,3.092,5.437,5.081,7.943
	c8.679,10.931,21.026,16.939,33.721,17.892c-0.011-0.001-0.023-0.001-0.034-0.002c0.011,0.001,0.023,0.001,0.034,0.002
	c0.33,0.025,0.659,0.032,0.989,0.05c0.462,0.025,0.924,0.057,1.387,0.069c0.401,0.011,0.801,0.002,1.202,0.002
	c0.394,0,0.788,0.01,1.181,0c0.393-0.01,0.785-0.038,1.177-0.057c0.404-0.019,0.807-0.031,1.21-0.061
	c0.348-0.026,0.696-0.069,1.044-0.102c0.429-0.042,0.86-0.075,1.287-0.127c0.015-0.002,0.031-0.005,0.046-0.006
	c0.481-0.061,0.96-0.142,1.439-0.216c0.309-0.048,0.619-0.086,0.927-0.14c0.61-0.107,1.216-0.236,1.823-0.368
	c0.176-0.038,0.354-0.067,0.53-0.108c0.577-0.132,1.15-0.285,1.723-0.439c0.205-0.055,0.412-0.1,0.616-0.158
	c0.419-0.119,0.834-0.258,1.251-0.388c0.344-0.108,0.692-0.205,1.033-0.32c0.01-0.003,0.019-0.007,0.028-0.011
	c0.557-0.189,1.109-0.399,1.66-0.61c4.813-1.831,9.251-4.404,13.234-7.69c0.045-0.037,0.092-0.071,0.138-0.109
	c0.651-0.541,1.291-1.101,1.918-1.68c0.768-0.71,1.503-1.442,2.213-2.19c-0.003,0.003-0.007,0.008-0.011,0.011
	c0.036-0.037,0.075-0.073,0.11-0.11c0.368-0.39,0.704-0.797,1.056-1.195c0.278-0.316,0.567-0.624,0.837-0.947
	c-0.226,0.27-0.467,0.527-0.699,0.791c0.235-0.268,0.48-0.53,0.708-0.802c-0.003,0.004-0.006,0.008-0.009,0.011
	c0.076-0.091,0.16-0.177,0.236-0.268c0.423-0.513,0.812-1.046,1.211-1.573c0.124-0.164,0.255-0.324,0.377-0.49
	c-0.022,0.029-0.045,0.057-0.066,0.086c0.022-0.029,0.045-0.057,0.067-0.087c0,0.001-0.001,0.002-0.001,0.002
	c0.117-0.16,0.248-0.312,0.364-0.475c0.404-0.564,0.773-1.145,1.15-1.723c0.044-0.066,0.089-0.13,0.132-0.198
	c0.458-0.71,0.89-1.431,1.307-2.161c0.244-0.427,0.503-0.845,0.733-1.279c0.288-0.543,0.543-1.101,0.809-1.653
	c0.184-0.383,0.385-0.757,0.559-1.145c0.278-0.619,0.52-1.249,0.77-1.877c0.133-0.334,0.283-0.662,0.409-1
	c0.364-0.98,0.695-1.969,0.993-2.967c0.277-0.927,0.522-1.863,0.741-2.804c0.075-0.321,0.132-0.646,0.2-0.969
	c0.021-0.099,0.041-0.198,0.062-0.297c-0.005,0.024-0.012,0.049-0.018,0.074c0.017-0.079,0.031-0.157,0.047-0.236
	c-0.011,0.049-0.016,0.1-0.027,0.148c0.108-0.526,0.218-1.051,0.308-1.58c0.065-0.384,0.114-0.769,0.17-1.155
	c0.014-0.092,0.028-0.183,0.04-0.275c-0.012,0.085-0.026,0.17-0.038,0.256c0.023-0.164,0.042-0.327,0.064-0.491
	c-0.011,0.078-0.015,0.157-0.026,0.235c0.067-0.485,0.133-0.97,0.185-1.457c0.04-0.376,0.072-0.753,0.104-1.13
	c0.012-0.137,0.023-0.273,0.034-0.41c-0.007,0.094-0.018,0.188-0.025,0.282c0.019-0.232,0.03-0.464,0.045-0.696
	c-0.009,0.138-0.01,0.277-0.02,0.415c0.034-0.457,0.062-0.913,0.083-1.371c0.017-0.375,0.032-0.749,0.04-1.124
	c0.004-0.157,0.008-0.313,0.011-0.47C97.496,50.721,97.49,50.823,97.487,50.925z M81.263,80.138
	c2.185-2.266,4.109-4.749,5.745-7.412C85.395,75.354,83.48,77.842,81.263,80.138z M21.964,49.851
	c0,15.486,12.6,28.086,28.087,28.086s28.086-12.6,28.086-28.086c0-15.487-12.599-28.086-28.086-28.086S21.964,34.364,21.964,49.851z
	 M74.025,49.851c0,13.22-10.754,23.975-23.974,23.975S26.077,63.071,26.077,49.851c0-13.219,10.755-23.974,23.975-23.974
	S74.025,36.632,74.025,49.851z"/>
</svg>
