<?xml version="1.0" encoding="utf-8"?>
<!-- Generator: Adobe Illustrator 17.0.0, SVG Export Plug-In . SVG Version: 6.00 Build 0)  -->
<!DOCTYPE svg PUBLIC "-//W3C//DTD SVG 1.1//EN" "http://www.w3.org/Graphics/SVG/1.1/DTD/svg11.dtd">
<svg version="1.1" id="_x31_" xmlns="http://www.w3.org/2000/svg" xmlns:xlink="http://www.w3.org/1999/xlink" x="0px" y="0px"
	 width="100px" height="100px" viewBox="0 0 100 100" enable-background="new 0 0 100 100" xml:space="preserve">
<path d="M65.994,14.533c-10.57,0-21.141,0-31.712,0c-2.096,0-2.093-3.253,0-3.253c10.571,0,21.141,0,31.712,0
	C68.09,11.28,68.086,14.533,65.994,14.533z M65.994,18.757c-10.57,0-21.141,0-31.712,0c-2.093,0-2.096,3.252,0,3.252
	c10.571,0,21.141,0,31.712,0C68.086,22.009,68.09,18.757,65.994,18.757z M65.994,26.232c-10.57,0-21.141,0-31.712,0
	c-2.093,0-2.096,3.253,0,3.253h0.001c10.57,0,21.141,0,31.711,0C68.086,29.485,68.09,26.232,65.994,26.232z M65.994,33.708
	c-10.57,0-21.141,0-31.712,0c-2.093,0-2.096,3.253,0,3.253c10.571,0,21.141,0,31.712,0C68.086,36.961,68.09,33.708,65.994,33.708z
	 M34.282,41.184c-2.093,0-2.096,3.253,0,3.253c10.571,0,21.141,0,31.712,0c2.093,0,2.096-3.253,0-3.253
	C55.423,41.184,44.853,41.184,34.282,41.184z M58.101,51.439H18.982c-3.554,0-6.456-2.895-6.456-6.457v-9.335H5.753
	c-1.796,0-3.253-1.456-3.253-3.253v-9.074c0-1.796,1.457-3.252,3.253-3.252h6.774v-9.335c0-0.057,0.007-0.112,0.008-0.169
	c0-0.001,0-0.001,0-0.001c0.006-0.244,0.028-0.484,0.061-0.721c0.006-0.042,0.004-0.086,0.011-0.129
	c-0.006,0.04-0.004,0.083-0.01,0.124c0.011-0.077,0.022-0.153,0.035-0.229c-0.006,0.036-0.019,0.069-0.025,0.105
	c0.006-0.037,0.019-0.072,0.026-0.109c0.046-0.257,0.102-0.512,0.178-0.758c0-0.001,0-0.001,0.001-0.001
	c0.632-2.051,2.262-3.672,4.318-4.293c-0.02,0.006-0.042,0.008-0.061,0.014c0.02-0.006,0.042-0.008,0.062-0.014
	c0.238-0.072,0.482-0.127,0.73-0.171c0.036-0.006,0.069-0.019,0.106-0.024c-0.035,0.005-0.067,0.017-0.101,0.023
	c0.072-0.013,0.145-0.023,0.218-0.033c-0.038,0.005-0.079,0.004-0.117,0.01c0.04-0.006,0.082-0.006,0.123-0.011
	c0.236-0.033,0.476-0.054,0.72-0.061c0.031-0.001,0.06-0.007,0.092-0.008c-0.031,0.001-0.06,0.007-0.09,0.008
	c0.058-0.001,0.115-0.009,0.174-0.009h58.585c1.091,0,1.976,0.885,1.976,1.976v4.326h4.188c3.618,0,6.448,2.22,6.448,5.066v7.025
	c0,0.898-0.728,1.626-1.626,1.626c-0.898,0-1.626-0.728-1.626-1.626v-7.025c0-0.862-1.366-1.813-3.196-1.813h-4.188v8.839
	c0,0.898-0.728,1.626-1.626,1.626c-0.898,0-1.626-0.728-1.626-1.626V7.531H26.414v40.656h31.687c0.898,0,1.626,0.728,1.626,1.626
	C59.727,50.711,58.999,51.439,58.101,51.439z M12.526,23.321H5.753v9.074h6.774V23.321z M23.162,7.531h-4.179
	c-1.765,0-3.204,1.431-3.204,3.196v34.256c0,1.765,1.439,3.204,3.204,3.204h4.179V7.531z M12.535,10.566L12.535,10.566
	c-0.001,0.032-0.008,0.063-0.008,0.095C12.527,10.629,12.534,10.598,12.535,10.566z M12.82,8.807
	c-0.004,0.013-0.005,0.027-0.009,0.04l0,0C12.815,8.834,12.816,8.82,12.82,8.807z M94.203,51.017
	c-3.404,4.052-8.734,5.844-13.902,4.675c-0.156-0.037-0.302,0.01-0.392,0.118l-16.8,19.993c-0.089,0.105-0.111,0.253-0.056,0.386
	c1.965,4.769,1.229,10.201-1.921,14.175c-2.747,3.465-6.815,5.358-11.018,5.358c-1.723,0-3.468-0.318-5.155-0.976
	c-0.846-0.329-1.485-1.05-1.708-1.927c-0.223-0.869-0.011-1.798,0.567-2.485l6.189-7.366c0.192-0.229,0.162-0.571-0.067-0.764
	l-3.631-3.051c-0.228-0.192-0.571-0.163-0.765,0.067l-4.538,5.4c-0.723,0.861-1.883,1.202-2.954,0.877
	c-1.079-0.33-1.854-1.269-1.974-2.392c-0.414-3.849,0.727-7.599,3.212-10.557c3.245-3.862,8.353-5.69,13.331-4.784
	c0.126,0.026,0.266-0.023,0.352-0.124l17.178-20.443c0.086-0.101,0.109-0.24,0.062-0.371c-1.678-4.616-0.854-9.837,2.148-13.624
	c3.872-4.885,10.369-6.648,16.173-4.383c0.846,0.33,1.485,1.05,1.708,1.927c0.222,0.869,0.01,1.798-0.567,2.485l-6.189,7.365
	c-0.192,0.229-0.163,0.572,0.067,0.764l3.631,3.051c0.151,0.126,0.314,0.135,0.396,0.125c0.083-0.007,0.242-0.042,0.368-0.191
	l4.539-5.402c0.72-0.858,1.882-1.202,2.952-0.876c1.08,0.328,1.856,1.266,1.976,2.39C97.831,44.309,96.69,48.059,94.203,51.017z
	 M94.248,41.909l-3.808,4.53c-0.652,0.776-1.567,1.251-2.578,1.339c-1.002,0.085-1.993-0.224-2.77-0.877l-3.629-3.05
	c-1.602-1.346-1.81-3.745-0.465-5.346l5.769-6.866c-4.31-1.408-9.005-0.012-11.856,3.583c-2.307,2.909-2.935,6.931-1.64,10.493
	c0.442,1.216,0.201,2.586-0.628,3.574l-17.18,20.443c-0.835,0.993-2.153,1.469-3.427,1.231c-3.83-0.696-7.761,0.709-10.256,3.677
	c-1.672,1.991-2.553,4.449-2.533,7.017l3.807-4.53c1.348-1.601,3.745-1.81,5.346-0.464l3.632,3.051
	c1.601,1.348,1.809,3.746,0.464,5.347l-5.77,6.865c4.308,1.407,9.005,0.013,11.856-3.583c2.419-3.052,2.979-7.235,1.462-10.915
	c-0.518-1.256-0.298-2.681,0.573-3.718l16.801-19.993c0.877-1.042,2.253-1.501,3.598-1.197c3.981,0.899,8.077-0.478,10.696-3.595
	C93.387,46.934,94.267,44.477,94.248,41.909z"/>
</svg>
